HIERARCHY
ROOT hips_JNT
{
	OFFSET 0.000000 0.000000 0.000000
	CHANNELS 6 Xposition Yposition Zposition Zrotation Xrotation Yrotation
	JOINT spine_JNT
	{
		OFFSET -0.000000 0.092917 0.002765
		CHANNELS 3 Zrotation Xrotation Yrotation
		JOINT spine1_JNT
		{
			OFFSET -0.000000 0.145634 -0.010035
			CHANNELS 3 Zrotation Xrotation Yrotation
			JOINT spine2_JNT
			{
				OFFSET 0.000030 0.100556 -0.015221
				CHANNELS 3 Zrotation Xrotation Yrotation
				JOINT neck_JNT
				{
					OFFSET 0.000034 0.116351 -0.018006
					CHANNELS 3 Zrotation Xrotation Yrotation
					JOINT head_JNT
					{
						OFFSET 0.000018 0.071400 0.000505
						CHANNELS 3 Zrotation Xrotation Yrotation
						End Site
						{
							OFFSET 0.000000 0.000000 0.000000
						}
					}
				}
				JOINT l_shoulder_JNT
				{
					OFFSET 0.028694 0.092266 0.005608
					CHANNELS 3 Zrotation Xrotation Yrotation
					JOINT l_arm_JNT
					{
						OFFSET 0.103648 -0.009178 -0.059106
						CHANNELS 3 Zrotation Xrotation Yrotation
						JOINT l_forearm_JNT
						{
							OFFSET 0.230014 -0.000059 0.000053
							CHANNELS 3 Zrotation Xrotation Yrotation
							JOINT l_hand_JNT
							{
								OFFSET 0.204504 -0.000052 0.000048
								CHANNELS 3 Zrotation Xrotation Yrotation
								JOINT l_handThumb1_JNT
								{
									OFFSET 0.036093 -0.016472 0.020583
									CHANNELS 3 Zrotation Xrotation Yrotation
									JOINT l_handThumb2_JNT
									{
										OFFSET 0.020881 -0.009279 0.018399
										CHANNELS 3 Zrotation Xrotation Yrotation
										JOINT l_handThumb3_JNT
										{
											OFFSET 0.023257 -0.016090 0.012192
											CHANNELS 3 Zrotation Xrotation Yrotation
											End Site
											{
												OFFSET 0.000000 0.000000 0.000000
											}
										}
									}
								}
								JOINT l_handIndex_01_JNT
								{
									OFFSET 0.091414 -0.011873 0.016914
									CHANNELS 3 Zrotation Xrotation Yrotation
									JOINT l_handIndex_02_JNT
									{
										OFFSET 0.029266 -0.014105 -0.001045
										CHANNELS 3 Zrotation Xrotation Yrotation
										JOINT l_handIndex_03_JNT
										{
											OFFSET 0.020364 -0.015596 -0.002024
											CHANNELS 3 Zrotation Xrotation Yrotation
											End Site
											{
												OFFSET 0.000000 0.000000 0.000000
											}
										}
									}
								}
								JOINT l_handMiddle1_JNT
								{
									OFFSET 0.092824 -0.010137 -0.003537
									CHANNELS 3 Zrotation Xrotation Yrotation
									JOINT l_handMiddle2_JNT
									{
										OFFSET 0.032178 -0.013845 -0.003243
										CHANNELS 3 Zrotation Xrotation Yrotation
										JOINT l_handMiddle3_JNT
										{
											OFFSET 0.022468 -0.016045 -0.001722
											CHANNELS 3 Zrotation Xrotation Yrotation
											End Site
											{
												OFFSET 0.000000 0.000000 0.000000
											}
										}
									}
								}
								JOINT l_handRing1_JNT
								{
									OFFSET 0.087096 -0.014707 -0.020554
									CHANNELS 3 Zrotation Xrotation Yrotation
									JOINT l_handRing2_JNT
									{
										OFFSET 0.030283 -0.013494 -0.005373
										CHANNELS 3 Zrotation Xrotation Yrotation
										JOINT l_handRing3_JNT
										{
											OFFSET 0.020830 -0.015866 -0.003008
											CHANNELS 3 Zrotation Xrotation Yrotation
											End Site
											{
												OFFSET 0.000000 0.000000 0.000000
											}
										}
									}
								}
								JOINT l_handPinky1_JNT
								{
									OFFSET 0.076808 -0.019614 -0.033833
									CHANNELS 3 Zrotation Xrotation Yrotation
									JOINT l_handPinky2_JNT
									{
										OFFSET 0.024035 -0.009490 -0.008074
										CHANNELS 3 Zrotation Xrotation Yrotation
										JOINT l_handPinky3_JNT
										{
											OFFSET 0.018491 -0.011870 -0.005429
											CHANNELS 3 Zrotation Xrotation Yrotation
											End Site
											{
												OFFSET 0.000000 0.000000 0.000000
											}
										}
									}
								}
							}
						}
					}
				}
				JOINT r_shoulder_JNT
				{
					OFFSET -0.028650 0.092281 0.005594
					CHANNELS 3 Zrotation Xrotation Yrotation
					JOINT r_arm_JNT
					{
						OFFSET -0.103624 -0.009124 -0.059154
						CHANNELS 3 Zrotation Xrotation Yrotation
						JOINT r_forearm_JNT
						{
							OFFSET -0.230014 0.000059 -0.000053
							CHANNELS 3 Zrotation Xrotation Yrotation
							JOINT r_hand_JNT
							{
								OFFSET -0.204506 0.000052 -0.000047
								CHANNELS 3 Zrotation Xrotation Yrotation
								JOINT r_handThumb1_JNT
								{
									OFFSET -0.036112 -0.016455 0.020567
									CHANNELS 3 Zrotation Xrotation Yrotation
									JOINT r_handThumb2_JNT
									{
										OFFSET -0.020893 -0.009268 0.018390
										CHANNELS 3 Zrotation Xrotation Yrotation
										JOINT r_handThumb3_JNT
										{
											OFFSET -0.023271 -0.016077 0.012181
											CHANNELS 3 Zrotation Xrotation Yrotation
											End Site
											{
												OFFSET 0.000000 0.000000 0.000000
											}
										}
									}
								}
								JOINT r_handIndex1_JNT
								{
									OFFSET -0.091567 -0.012318 0.017025
									CHANNELS 3 Zrotation Xrotation Yrotation
									JOINT r_handIndex2_JNT
									{
										OFFSET -0.029267 -0.014105 -0.001045
										CHANNELS 3 Zrotation Xrotation Yrotation
										JOINT r_handIndex3_JNT
										{
											OFFSET -0.020364 -0.015595 -0.002024
											CHANNELS 3 Zrotation Xrotation Yrotation
											End Site
											{
												OFFSET 0.000000 0.000000 0.000000
											}
										}
									}
								}
								JOINT r_handMiddle1_JNT
								{
									OFFSET -0.092827 -0.010090 -0.003579
									CHANNELS 3 Zrotation Xrotation Yrotation
									JOINT r_handMiddle2_JNT
									{
										OFFSET -0.032184 -0.013830 -0.003261
										CHANNELS 3 Zrotation Xrotation Yrotation
										JOINT r_handMiddle3_JNT
										{
											OFFSET -0.022476 -0.016033 -0.001737
											CHANNELS 3 Zrotation Xrotation Yrotation
											End Site
											{
												OFFSET 0.000000 0.000000 0.000000
											}
										}
									}
								}
								JOINT r_handRing1_JNT
								{
									OFFSET -0.087241 -0.015151 -0.020443
									CHANNELS 3 Zrotation Xrotation Yrotation
									JOINT r_handRing2_JNT
									{
										OFFSET -0.030281 -0.013493 -0.005373
										CHANNELS 3 Zrotation Xrotation Yrotation
										JOINT r_handRing3_JNT
										{
											OFFSET -0.020830 -0.015867 -0.003008
											CHANNELS 3 Zrotation Xrotation Yrotation
											End Site
											{
												OFFSET 0.000000 0.000000 0.000000
											}
										}
									}
								}
								JOINT r_handPinky1_JNT
								{
									OFFSET -0.076948 -0.020056 -0.033719
									CHANNELS 3 Zrotation Xrotation Yrotation
									JOINT r_handPinky2_JNT
									{
										OFFSET -0.024035 -0.009491 -0.008074
										CHANNELS 3 Zrotation Xrotation Yrotation
										JOINT r_handPinky3_JNT
										{
											OFFSET -0.018491 -0.011867 -0.005430
											CHANNELS 3 Zrotation Xrotation Yrotation
											End Site
											{
												OFFSET 0.000000 0.000000 0.000000
											}
										}
									}
								}
							}
						}
					}
				}
			}
		}
	}
	JOINT l_upleg_JNT
	{
		OFFSET 0.068275 -0.000002 -0.000000
		CHANNELS 3 Zrotation Xrotation Yrotation
		JOINT l_leg_JNT
		{
			OFFSET 0.039513 -0.320175 -0.009642
			CHANNELS 3 Zrotation Xrotation Yrotation
			JOINT l_foot_JNT
			{
				OFFSET 0.021670 -0.300227 -0.047549
				CHANNELS 3 Zrotation Xrotation Yrotation
				JOINT l_toebase_JNT
				{
					OFFSET 0.006311 -0.102086 0.124553
					CHANNELS 3 Zrotation Xrotation Yrotation
					End Site
					{
						OFFSET 0.000000 0.000000 0.000000
					}
				}
			}
		}
	}
	JOINT r_upleg_JNT
	{
		OFFSET -0.068275 0.000000 0.000000
		CHANNELS 3 Zrotation Xrotation Yrotation
		JOINT r_leg_JNT
		{
			OFFSET -0.039514 -0.320177 -0.009642
			CHANNELS 3 Zrotation Xrotation Yrotation
			JOINT r_foot_JNT
			{
				OFFSET -0.021670 -0.300227 -0.047549
				CHANNELS 3 Zrotation Xrotation Yrotation
				JOINT r_toebase_JNT
				{
					OFFSET -0.006311 -0.102086 0.124551
					CHANNELS 3 Zrotation Xrotation Yrotation
					End Site
					{
						OFFSET 0.000000 0.000000 0.000000
					}
				}
			}
		}
	}
}
MOTION
Frames: 5
Frame Time: 0.033333
-0.358807 0.682594 0.250893 -3.744019 4.408343 21.315800 -0.000001 -0.000001 0.000000 0.359835 1.967380 -10.367000 -0.000000 -0.000000 0.000000 -2.890890 -6.854910 2.132490 9.183240 -11.316000 0.039565 -0.000000 -0.000000 0.000000 -51.452301 24.070700 -35.034100 -6.005220 -7.290260 -122.603996 -0.000000 0.000000 0.000000 8.793980 30.000000 -14.576000 -0.000000 0.000000 0.000000 -11.500900 -0.115041 0.000000 -18.873600 5.543660 0.000000 -24.337900 7.050660 0.000000 -16.157499 4.772560 0.000000 -21.526699 4.197650 0.000000 -27.723499 5.316990 0.000000 -18.438499 3.619750 0.000000 -24.172400 -2.344950 0.000000 -31.094801 -2.956750 0.000000 -20.714701 -2.025830 0.000000 -26.947201 -5.180050 0.000000 -34.732300 -6.504940 0.000000 -23.073200 -4.482350 0.000000 -0.000000 -0.000000 0.000000 49.829399 40.740898 20.347300 3.913870 -7.274330 100.186996 -0.000003 0.000003 0.000000 -8.793980 30.000000 14.576000 -0.000000 0.000000 0.000000 15.634600 0.211996 0.000000 25.755501 7.430660 0.000000 33.284801 9.361120 0.000000 22.027901 6.421420 0.000000 29.327200 5.596680 0.000000 37.813801 6.996940 0.000000 25.106600 4.851440 0.000000 32.882401 -3.108040 0.000000 42.313599 -3.852580 0.000000 28.174299 -2.703440 0.000000 36.749500 -6.829240 0.000000 47.438702 -8.397610 0.000000 31.442900 -5.958740 0.000000 8.446340 -39.074100 13.812800 -7.571300 57.787701 7.055290 4.197390 10.610400 -2.426430 0.000003 0.000009 0.000000 4.219490 -26.234800 26.791401 4.615640 29.214100 -2.894520 3.992050 -9.481270 2.826940 -0.000001 -0.000001 0.039565
-0.351633 0.685492 0.253345 -4.450189 5.639952 22.363194 -0.000000 0.000000 0.000000 0.360386 1.967270 -10.383100 -0.000000 0.000000 0.000000 -1.903040 -11.122100 1.368280 8.694940 -7.378370 -0.353877 -0.000000 0.000000 0.000000 -47.391602 27.553499 -37.379299 -6.120500 -7.267220 -123.856003 -0.000000 0.000005 0.000000 8.793980 30.000000 -14.576000 -0.000000 0.000000 0.000000 -11.773000 -0.120529 0.000000 -19.324400 5.670320 0.000000 -24.922400 7.207930 0.000000 -16.542500 4.882640 0.000000 -22.038700 4.292270 0.000000 -28.384899 5.432880 0.000000 -18.876400 3.702420 0.000000 -24.745199 -2.397010 0.000000 -31.832300 -3.019530 0.000000 -21.205299 -2.071600 0.000000 -27.589899 -5.293500 0.000000 -35.564201 -6.639690 0.000000 -23.622400 -4.582630 0.000000 -0.000000 0.000000 0.000000 51.961899 40.942902 17.833700 3.422810 -7.149740 94.788101 0.000001 -0.000003 0.000000 -8.793980 30.000000 14.576000 -0.000000 0.000000 0.000000 16.123800 0.225380 0.000000 26.575001 7.648080 0.000000 34.353500 9.622130 0.000000 22.725901 6.612830 0.000000 30.253401 5.756180 0.000000 39.013901 7.183110 0.000000 25.897800 4.993350 0.000000 33.914200 -3.193980 0.000000 43.643002 -3.949590 0.000000 29.057800 -2.780840 0.000000 37.915100 -7.012760 0.000000 48.951599 -8.597560 0.000000 32.437199 -6.126030 0.000000 14.826700 -42.443802 16.749701 -6.349860 64.528900 5.738840 -0.192296 2.996600 -3.304420 -0.000001 -0.000000 0.000000 2.902690 -26.086599 25.826799 4.521660 27.013399 -2.695110 4.288660 -9.192300 2.795480 -0.000000 -0.000001 0.000000
-0.339833 0.687904 0.259935 -4.660242 6.656662 22.388910 -0.000000 -0.000000 0.039565 0.336387 1.971520 -9.684760 0.000000 0.000000 0.000000 -1.085320 -13.882500 0.767189 7.903360 -3.997020 -0.545362 0.000000 0.000000 0.000000 -44.220299 30.899700 -39.342499 -6.053680 -7.280880 -123.128998 0.000000 0.000003 0.000000 8.793980 30.000000 -14.576000 -0.000000 0.000000 0.000000 -12.172500 -0.128816 0.000000 -19.986700 5.855710 0.000000 -25.781700 7.437640 0.000000 -17.108000 5.043900 0.000000 -22.790800 4.430610 0.000000 -29.356800 5.601800 0.000000 -19.519699 3.823440 0.000000 -25.586399 -2.473020 0.000000 -32.915401 -3.110800 0.000000 -21.925900 -2.138520 0.000000 -28.534201 -5.458930 0.000000 -36.786800 -6.835160 0.000000 -24.429199 -4.729160 0.000000 0.000000 0.000000 0.000000 53.695000 39.788200 15.755300 2.752370 -6.896060 87.144997 -0.000003 0.000020 0.000000 -8.793980 30.000000 14.576000 -0.000000 0.000000 0.000000 16.502600 0.236021 0.000000 27.210400 7.815520 0.000000 35.182701 9.822260 0.000000 23.267000 6.760470 0.000000 30.971300 5.878730 0.000000 39.944099 7.325250 0.000000 26.510900 5.102640 0.000000 34.713402 -3.259830 0.000000 44.672901 -4.023290 0.000000 29.742100 -2.840340 0.000000 38.818501 -7.153020 0.000000 50.124599 -8.748590 0.000000 33.207802 -6.254400 0.000000 19.455099 -39.433498 19.168501 -4.633240 60.805599 3.804150 -4.000500 -1.130710 -4.531960 0.000003 -0.000000 0.039565 1.399720 -25.339600 24.921000 4.451230 25.181101 -2.535280 4.501110 -9.394540 2.804420 -0.000000 0.000000 0.039565
-0.324429 0.688423 0.269002 -4.210170 7.116809 20.983097 -0.000000 -0.000000 0.000000 0.293906 1.978300 -8.451820 -0.000000 0.000000 0.000000 -0.551367 -14.303300 0.393664 6.940920 -1.883480 -0.602632 -0.000000 0.000000 0.000000 -42.351601 34.065498 -40.984798 -5.781770 -7.327610 -120.191002 -0.000000 0.000000 0.000000 8.793980 30.000000 -14.576000 -0.000000 0.000000 0.000000 -12.599500 -0.137976 0.000000 -20.695499 6.053120 0.000000 -26.701700 7.681550 0.000000 -17.713100 5.215800 0.000000 -23.595301 4.577700 0.000000 -30.396601 5.780690 0.000000 -20.207701 3.952300 0.000000 -26.485701 -2.553700 0.000000 -34.073601 -3.207160 0.000000 -22.696199 -2.209700 0.000000 -29.544399 -5.634220 0.000000 -38.095200 -7.040870 0.000000 -25.292200 -4.884810 0.000000 -0.000000 0.000000 0.000000 54.551201 37.912701 14.665200 2.010580 -6.484020 78.092796 -0.000003 0.000000 0.000000 -8.793980 30.000000 14.576000 -0.000000 0.000000 0.000000 16.733601 0.242627 0.000000 27.598301 7.917200 0.000000 35.688900 9.943410 0.000000 23.597200 6.850230 0.000000 31.409201 5.953030 0.000000 40.511700 7.411040 0.000000 26.884899 5.169010 0.000000 35.200802 -3.299680 0.000000 45.300999 -4.067600 0.000000 30.159401 -2.876430 0.000000 39.369801 -7.237720 0.000000 50.840500 -8.839010 0.000000 33.678001 -6.332150 0.000000 21.565201 -31.473499 20.528900 -3.467220 49.595699 2.256610 -7.851780 -3.471680 -5.184770 0.000002 -0.000000 0.000000 0.062414 -24.491501 23.454201 4.382530 24.778299 -2.787340 4.684530 -10.133300 3.096270 0.000000 -0.000000 0.000000
-0.306991 0.686466 0.277853 -3.131130 6.834932 18.163706 -0.000000 -0.000001 0.039565 0.241766 1.985340 -6.944640 -0.000000 0.000000 0.000000 -0.365452 -12.283000 0.259443 5.971780 -1.363950 -0.551073 -0.000000 0.000000 0.000000 -41.550701 37.124901 -42.723999 -5.326050 -7.374420 -115.308998 -0.000000 0.000003 0.000000 8.793980 30.000000 -14.576000 -0.000000 0.000000 0.000000 -12.967500 -0.146118 0.000000 -21.306700 6.222550 0.000000 -27.495501 7.890290 0.000000 -18.234800 5.363480 0.000000 -24.288799 4.703730 0.000000 -31.293200 5.933380 0.000000 -20.800699 4.062890 0.000000 -27.260700 -2.622710 0.000000 -35.071701 -3.289150 0.000000 -23.360001 -2.270710 0.000000 -30.415501 -5.783920 0.000000 -39.223801 -7.215350 0.000000 -26.036200 -5.018070 0.000000 -0.000000 0.000000 0.000000 54.540798 36.179501 14.655400 1.324650 -5.943590 68.776604 -0.000004 0.000000 0.000000 -8.793980 30.000000 14.576000 -0.000000 0.000000 0.000000 16.833099 0.245499 0.000000 27.765301 7.960880 0.000000 35.907001 9.995370 0.000000 23.739500 6.888820 0.000000 31.597900 5.984920 0.000000 40.756199 7.447770 0.000000 27.046000 5.197520 0.000000 35.410702 -3.316770 0.000000 45.571400 -4.086530 0.000000 30.339100 -2.891920 0.000000 39.607300 -7.274000 0.000000 51.148800 -8.877550 0.000000 33.880402 -6.365500 0.000000 20.770399 -19.552999 20.929899 -3.219050 31.863100 1.449400 -11.280800 -4.340410 -4.811980 -0.000001 0.000002 0.000000 -1.083280 -23.548201 23.137100 4.388500 25.636000 -2.992390 5.169500 -11.385600 3.413480 0.000002 0.000001 0.000000
